<svg width="88" height="99" viewBox="0 0 88 99" fill="none" xmlns="http://www.w3.org/2000/svg">
<path d="M88 30.2237V67.8627C88.0001 69.8641 87.4733 71.8303 86.4724 73.5635C85.4716 75.2967 84.032 76.7358 82.2985 77.7362L78.3235 80.0259L69.5583 85.0634L49.7015 96.5122C47.9682 97.5134 46.0017 98.0406 44 98.0406C41.9983 98.0406 40.0318 97.5134 38.2985 96.5122L18.4417 85.0634L9.61699 80.003L5.68319 77.7362C3.95308 76.7335 2.51718 75.2934 1.51963 73.5604C0.522088 71.8273 -0.00199199 69.8623 5.68971e-06 67.8627V30.2237C0.000453698 28.2217 0.527507 26.2552 1.52826 24.5213C2.52901 22.7875 3.96825 21.3474 5.7015 20.3457L9.61699 18.0971L10.1574 17.7857L24.6012 32.2432C26.8059 34.447 28.5548 37.0635 29.748 39.9434C30.9412 42.8232 31.5554 45.9099 31.5554 49.0272C31.5554 52.1444 30.9412 55.2311 29.748 58.111C28.5548 60.9908 26.8059 63.6073 24.6012 65.8111C24.4237 65.985 24.2834 66.1932 24.1889 66.423C24.0944 66.6529 24.0477 66.8995 24.0515 67.148C24.0554 67.3965 24.1098 67.6416 24.2113 67.8683C24.3129 68.0951 24.4596 68.2989 24.6424 68.4672C25.0097 68.793 25.4886 68.9643 25.9792 68.9455C26.4698 68.9268 26.9342 68.7193 27.2756 68.3665C31.7228 63.951 37.7354 61.4731 44.0023 61.4731C50.2692 61.4731 56.2818 63.951 60.729 68.3665C61.0707 68.717 61.534 68.9229 62.0232 68.9416C62.5124 68.9604 62.9901 68.7905 63.3576 68.4672C63.5404 68.2989 63.6871 68.0951 63.7887 67.8683C63.8903 67.6416 63.9446 67.3965 63.9485 67.148C63.9523 66.8995 63.9056 66.6529 63.8111 66.423C63.7166 66.1932 63.5763 65.985 63.3988 65.8111C61.1947 63.607 59.4463 60.9904 58.2534 58.1106C57.0605 55.2308 56.4465 52.1442 56.4465 49.0272C56.4465 45.9101 57.0605 42.8235 58.2534 39.9437C59.4463 37.0639 61.1947 34.4473 63.3988 32.2432C63.5986 32.048 63.7511 31.8096 63.8446 31.5464C63.9381 31.2832 63.9702 31.002 63.9384 30.7245C63.9066 30.447 63.8117 30.1804 63.661 29.9452C63.5104 29.7099 63.3079 29.5123 63.0691 29.3673C62.7051 29.1472 62.2771 29.0573 61.8553 29.1122C61.4335 29.1671 61.0428 29.3636 60.7473 29.6695C56.2928 34.1041 50.261 36.5903 43.9755 36.5826C37.6899 36.5748 31.6642 34.0738 27.2207 29.6283L13.4821 15.8898L18.5196 12.9726L38.2985 1.52842C40.0318 0.52715 41.9983 0 44 0C46.0017 0 47.9682 0.52715 49.7015 1.52842L69.5079 12.9772L78.351 18.0834L82.2985 20.3731C84.0277 21.3726 85.4644 22.8083 86.4649 24.5369C87.4654 26.2655 87.9947 28.2264 88 30.2237Z" fill="#F2F2F2"/>
</svg>
