<svg width="154" height="57" viewBox="0 0 154 57" fill="none" xmlns="http://www.w3.org/2000/svg">
<path d="M53.0693 52.455C53.0693 52.455 54.364 54.0919 56.7002 54.0919C58.9174 54.0919 60.2121 52.6633 60.2121 50.9818C60.2121 47.5146 55.2419 47.8717 55.2419 46.0712C55.2419 45.4015 55.8967 44.9402 56.7895 44.9402C57.4889 44.9402 58.1883 45.2676 58.1883 45.7587V46.2349H59.9442V45.2527C59.9442 43.7498 58.0395 43.1694 56.8044 43.1694C54.7657 43.1694 53.2777 44.4343 53.2777 46.1456C53.2777 49.4342 58.2478 49.2854 58.2478 51.086C58.2478 51.9044 57.5335 52.3359 56.73 52.3359C55.2568 52.3359 54.1705 51.086 54.1705 51.086L53.0693 52.455ZM70.4624 53.9133H72.4118V49.3003L74.9117 45.3569C75.1052 45.0593 75.1944 44.9998 75.5218 44.9998H75.8641V43.348H74.8671C74.1826 43.348 73.8701 43.4522 73.4832 44.1218L72.0993 46.4432C71.7272 47.0682 71.4594 47.6336 71.4594 47.6336H71.4296C71.4296 47.6336 71.1618 47.0533 70.7898 46.4432L69.391 44.1218C68.9892 43.4522 68.6916 43.348 68.0071 43.348H67.0101V44.9998H67.3523C67.6797 44.9998 67.769 45.0593 67.9624 45.3569L70.4624 49.3003V53.9133ZM82.5935 52.455C82.5935 52.455 83.8881 54.0919 86.2243 54.0919C88.4416 54.0919 89.7362 52.6633 89.7362 50.9818C89.7362 47.5146 84.766 47.8717 84.766 46.0712C84.766 45.4015 85.4208 44.9402 86.3136 44.9402C87.013 44.9402 87.7124 45.2676 87.7124 45.7587V46.2349H89.4683V45.2527C89.4683 43.7498 87.5636 43.1694 86.3285 43.1694C84.2899 43.1694 82.8018 44.4343 82.8018 46.1456C82.8018 49.4342 87.7719 49.2854 87.7719 51.086C87.7719 51.9044 87.0577 52.3359 86.2541 52.3359C84.7809 52.3359 83.6946 51.086 83.6946 51.086L82.5935 52.455ZM100.269 53.9133H102.219V44.9998H103.841C104.049 44.9998 104.168 45.1188 104.168 45.3271V45.967H105.879V44.3004C105.879 43.601 105.641 43.348 104.927 43.348H97.5609C96.8467 43.348 96.6086 43.601 96.6086 44.3004V45.967H98.3199V45.3271C98.3199 45.1188 98.4389 44.9998 98.6472 44.9998H100.269V53.9133ZM113.681 52.9014C113.681 53.6157 113.979 53.9133 114.693 53.9133H119.485C120.184 53.9133 120.497 53.6157 120.497 52.9014V51.2943H118.726V51.9342C118.726 52.1425 118.607 52.2615 118.398 52.2615H115.958C115.75 52.2615 115.631 52.1425 115.631 51.9342V49.4193H119.053V47.7676H115.631V44.9998H118.012C118.22 44.9998 118.339 45.1188 118.339 45.3271V45.967H120.11V44.3599C120.11 43.6605 119.797 43.348 119.098 43.348H112.714V44.9998H113.681V52.9014ZM127.18 53.9133H128.862C129.561 53.9133 129.814 53.6157 129.874 52.9014L130.216 48.1991C130.275 47.4997 130.231 46.5473 130.231 46.5473H130.26C130.26 46.5473 130.573 47.6039 130.841 48.1991L132.597 52.0978H134.174L135.93 48.1991C136.198 47.6039 136.51 46.5622 136.51 46.5622H136.54C136.54 46.5622 136.495 47.4997 136.555 48.1991L136.912 52.9014C136.972 53.6157 137.21 53.9133 137.909 53.9133H139.591V52.2615H139.129C138.921 52.2615 138.817 52.1425 138.802 51.9342L138.117 43.348H136.094L133.921 48.3777C133.668 48.9878 133.4 49.7913 133.4 49.7913H133.371C133.371 49.7913 133.103 48.9878 132.85 48.3777L130.677 43.348H128.653L127.969 51.9342C127.954 52.1425 127.85 52.2615 127.641 52.2615H127.18V53.9133ZM146.437 52.455C146.437 52.455 147.732 54.0919 150.068 54.0919C152.286 54.0919 153.58 52.6633 153.58 50.9818C153.58 47.5146 148.61 47.8717 148.61 46.0712C148.61 45.4015 149.265 44.9402 150.158 44.9402C150.857 44.9402 151.556 45.2676 151.556 45.7587V46.2349H153.312V45.2527C153.312 43.7498 151.408 43.1694 150.172 43.1694C148.134 43.1694 146.646 44.4343 146.646 46.1456C146.646 49.4342 151.616 49.2854 151.616 51.086C151.616 51.9044 150.902 52.3359 150.098 52.3359C148.625 52.3359 147.539 51.086 147.539 51.086L146.437 52.455Z" fill="white"/>
<path d="M0.361084 14.3805H2.93054V11.3053H0.361084V14.3805ZM0.433463 36.739H2.89435V18.5411H0.433463V36.739Z" fill="white"/>
<path d="M11.0161 36.7389H13.477V28.0198C13.477 27.1515 13.5493 26.3194 13.7665 25.5596C14.5988 22.5568 17.2769 20.4222 20.3892 20.4222C23.8996 20.4222 24.3338 22.9548 24.3338 25.8129V36.7389H26.7947V25.1617C26.7947 20.6755 25.2024 18.1068 20.7149 18.1068C16.4083 18.1068 14.0922 21.0373 13.4408 22.7015H13.3684C13.3684 22.7015 13.4408 22.0503 13.4408 21.2544V18.541H11.0161V36.7389Z" fill="white"/>
<path d="M50.3628 27.5495C50.3628 33.0487 54.6695 37.173 59.9894 37.173C65.3092 37.173 69.6159 33.0487 69.6159 27.5495C69.6159 22.1588 65.3092 18.1068 59.9894 18.1068C54.6695 18.1068 50.3628 22.1588 50.3628 27.5495ZM52.8962 27.5495C52.8962 23.4251 56.0807 20.3499 59.9894 20.3499C63.898 20.3499 67.0825 23.4251 67.0825 27.5495C67.0825 31.7824 63.898 34.9661 59.9894 34.9661C56.0807 34.9661 52.8962 31.7824 52.8962 27.5495Z" fill="white"/>
<path d="M76.3855 36.7389H78.8462V29.069C78.8462 27.9113 78.9913 26.6812 79.353 25.5235C80.1491 22.8463 82.067 20.8203 84.6364 20.8203C85.1072 20.8203 85.5413 20.8926 85.5413 20.8926V18.4686C85.5413 18.4686 85.0709 18.3601 84.5641 18.3601C81.7053 18.3601 79.6787 20.4585 78.8102 23.2081H78.7379C78.7379 23.2081 78.8102 22.5568 78.8102 21.7609V18.541H76.3855V36.7389Z" fill="white"/>
<path d="M91.4565 36.7389H93.9176V28.1283C93.9176 27.2962 93.99 26.4641 94.1706 25.7044C94.9308 22.9186 97.1744 20.3499 100.142 20.3499C103.58 20.3499 103.978 23.0271 103.978 25.7767V36.7389H106.439V28.1283C106.439 27.1515 106.511 26.2832 106.765 25.4873C107.452 22.8101 109.732 20.3499 112.519 20.3499C115.848 20.3499 116.464 22.8101 116.464 25.7767V36.7389H118.924V25.1617C118.924 20.6755 117.296 18.1068 112.881 18.1068C109.805 18.1068 107.163 20.2052 106.186 22.6653H106.113C105.57 19.6625 103.834 18.1068 100.468 18.1068C97.6448 18.1068 94.7497 20.2414 93.8813 22.7015H93.8089C93.8089 22.7015 93.8813 22.0503 93.8813 21.2544V18.541H91.4565V36.7389Z" fill="white"/>
<path d="M125.294 31.7824C125.294 35.4003 128.443 37.173 131.483 37.173C136.042 37.173 137.563 33.2296 137.563 33.2296H137.635C137.635 33.2296 137.563 33.8446 137.563 34.749V36.7389H139.915V25.0893C139.915 20.5308 137.49 18.1068 133.111 18.1068C129.022 18.1068 126.633 20.169 126.633 20.169L127.792 22.0503C127.792 22.0503 129.926 20.3137 132.93 20.3137C135.536 20.3137 137.454 21.5076 137.454 25.0169V25.4873H136.44C133.292 25.4873 125.294 25.632 125.294 31.7824ZM127.827 31.6377C127.827 27.6218 133.545 27.5133 136.405 27.5133H137.454V28.3092C137.454 31.4568 135.355 35.0747 131.881 35.0747C129.167 35.0747 127.827 33.3381 127.827 31.6377Z" fill="white"/>
<path d="M147.57 32.4337C147.57 36.4134 150.248 36.8837 151.768 36.8837C152.238 36.8837 152.673 36.8114 152.673 36.8114V34.6045C152.673 34.6045 152.383 34.6407 152.058 34.6407C151.116 34.6407 150.031 34.2789 150.031 31.891V11.3053H147.57V32.4337Z" fill="white"/>
<path fill-rule="evenodd" clip-rule="evenodd" d="M47.3443 1.69132C49.1382 0.739377 50.8351 0.276001 52.4401 0.276001C54.0637 0.276001 55.3571 0.65421 56.3541 1.3763L56.3628 1.38213C57.347 2.06102 57.8058 2.90823 57.8058 3.94851C57.8058 4.84148 57.5673 5.5925 57.1027 6.22261L57.094 6.23555C56.6621 6.86661 56.2024 7.11301 55.7139 7.11301C55.4171 7.11301 55.2282 7.005 55.0864 6.7734C54.8743 6.38245 54.5643 5.69182 54.1543 4.68544C53.8033 3.78871 53.3615 3.06976 52.8134 2.55894C52.2719 1.97946 51.57 1.69429 50.7466 1.69429C49.3462 1.69429 48.1875 2.47222 47.2678 3.87175L47.2629 3.87944C46.4019 5.24987 45.5599 7.36764 44.729 10.201C44.2756 11.7499 43.9151 13.1892 43.6489 14.5183C43.5745 14.8168 43.5175 15.0594 43.4786 15.244C43.4431 15.4123 43.4125 15.5773 43.4125 15.689V15.8019C43.4125 16.1106 43.5162 16.4115 43.7812 16.6199C44.0259 16.812 44.3409 16.8708 44.6509 16.8708C45.3399 16.8708 46.3258 16.8327 47.6035 16.7576L50.301 16.7026L50.3221 16.7446L50.3738 16.796C50.3754 16.7977 50.3837 16.806 50.3924 16.8326C50.4019 16.8614 50.4118 16.9104 50.4118 16.9873C50.4118 17.1353 50.3027 17.4477 49.9306 17.9687L49.9244 17.9776L49.9182 17.9868C49.7628 18.229 49.6272 18.3848 49.5165 18.476C49.4069 18.5663 49.3491 18.5712 49.3358 18.5712L44.5889 18.6842C43.9569 18.6848 43.4071 18.7814 43.002 19.0345L42.9904 19.0418L42.9793 19.0499C42.6093 19.3142 42.3758 19.7162 42.2443 20.1951C39.8687 28.2578 39.3613 30.7519 37.7931 38.4591C37.719 38.8237 37.6425 39.1999 37.5633 39.5888L37.5611 39.5992L37.5595 39.6095C37.3474 40.9781 36.753 42.6266 36.0689 44.1866C35.3878 45.7395 34.6308 47.1759 34.1118 48.1138C33.082 49.9747 31.9815 51.4636 30.8147 52.5913L30.8094 52.5966C29.6674 53.7383 28.5597 54.57 27.4878 55.1057C26.5959 55.5513 25.8872 55.8609 25.3542 56.0432L25.1157 55.4608C25.564 55.1809 26.0604 54.7795 26.6027 54.2695C27.3255 53.6308 28.0131 52.7719 28.6696 51.7063C29.3738 50.6282 30.0091 49.3138 30.5789 47.7691C31.1848 46.2736 32.42 42.7175 32.7524 40.6569L37.1254 20.4332C37.178 20.2622 37.1964 20.0674 37.1964 19.866C37.1964 19.5473 37.0662 19.2572 36.7853 19.0699C36.5364 18.9039 36.2197 18.8535 35.9018 18.8535L32.5116 18.91C32.2796 18.9096 32.17 18.8659 32.122 18.8344C32.0938 18.7789 32.06 18.6657 32.06 18.4548C32.06 18.2064 32.1573 17.9264 32.4118 17.6077C32.6859 17.2735 32.973 17.1232 33.2785 17.0957L36.9504 16.9262L36.9624 16.925C37.6174 16.8595 37.9712 16.3247 38.1398 15.6956L38.5896 14.1213C39.5569 10.8855 40.8154 8.24746 42.3555 6.19363C43.9457 4.08578 45.6099 2.59466 47.3414 1.69293L47.3443 1.69132Z" fill="white"/>
</svg>
