<svg width="623" height="623" viewBox="0 0 623 623" fill="none" xmlns="http://www.w3.org/2000/svg">
<path fill-rule="evenodd" clip-rule="evenodd" d="M615.608 586.466C619.601 590.361 621.942 595.645 622.144 601.222C622.346 606.798 620.395 612.238 616.694 616.412C614.757 618.447 612.434 620.074 609.861 621.199C607.287 622.323 604.516 622.922 601.708 622.96C598.9 622.998 596.113 622.474 593.51 621.42C590.908 620.366 588.541 618.802 586.55 616.82C561.484 591.726 531.725 571.821 498.972 558.24C466.22 544.659 431.115 537.669 395.663 537.669C360.211 537.669 325.107 544.659 292.354 558.24C259.601 571.821 229.842 591.726 204.776 616.82C202.535 619.058 199.819 620.762 196.829 621.804C193.839 622.846 190.653 623.199 187.508 622.838C184.363 622.476 181.34 621.409 178.664 619.716C175.988 618.023 173.728 615.748 172.052 613.06C169.561 608.908 168.545 604.034 169.169 599.232C169.793 594.429 172.022 589.978 175.492 586.602C225.922 535.897 254.197 467.239 254.112 395.691C254.027 324.144 225.59 255.553 175.039 204.968L5.53761 35.3071C1.87021 31.3057 -0.111887 26.0414 0.00488012 20.6126C0.121647 15.1837 2.32837 10.0099 6.16443 6.17021C10.0005 2.33056 15.1695 0.121762 20.5932 0.0048865C26.017 -0.111989 31.2764 1.87197 35.274 5.54281L204.776 175.204C229.842 200.297 259.601 220.203 292.354 233.783C325.107 247.364 360.211 254.354 395.663 254.354C431.115 254.354 466.22 247.364 498.972 233.783C531.725 220.203 561.484 200.297 586.55 175.204C588.545 173.215 590.918 171.647 593.529 170.593C596.14 169.539 598.935 169.019 601.75 169.066C604.565 169.112 607.342 169.723 609.917 170.863C612.491 172.003 614.812 173.648 616.74 175.702C620.434 179.881 622.378 185.325 622.167 190.902C621.956 196.478 619.607 201.759 615.608 205.647C565.388 256.27 537.204 324.716 537.204 396.057C537.204 467.397 565.388 535.844 615.608 586.466ZM587.672 176.324C589.516 174.486 591.709 173.037 594.122 172.063C596.536 171.088 599.121 170.608 601.724 170.651C604.327 170.694 606.894 171.259 609.275 172.313C611.649 173.364 613.788 174.879 615.568 176.77C618.982 180.642 620.778 185.68 620.583 190.842C620.388 196.011 618.21 200.907 614.503 204.511L614.493 204.521L614.483 204.531C563.968 255.451 535.619 324.298 535.619 396.057C535.619 467.815 563.968 536.663 614.483 587.583L614.492 587.592L614.501 587.601C618.202 591.211 620.372 596.109 620.56 601.279C620.747 606.439 618.945 611.473 615.527 615.34C613.739 617.212 611.598 618.71 609.226 619.746C606.846 620.786 604.283 621.34 601.686 621.375C599.09 621.41 596.513 620.926 594.106 619.951C591.7 618.976 589.513 617.531 587.672 615.699C562.458 590.459 532.525 570.436 499.579 556.776C466.634 543.115 431.323 536.084 395.663 536.084C360.003 536.084 324.692 543.115 291.747 556.776C258.802 570.436 228.868 590.459 203.654 615.699L204.761 616.805L203.655 615.698C203.655 615.699 203.655 615.699 203.654 615.699C201.582 617.769 199.071 619.344 196.307 620.307C193.543 621.27 190.597 621.597 187.689 621.263C184.781 620.929 181.986 619.942 179.511 618.377C177.041 616.814 174.953 614.714 173.405 612.232C171.102 608.389 170.163 603.88 170.741 599.436C171.319 594.987 173.383 590.865 176.597 587.739L176.606 587.73L176.616 587.72C227.342 536.718 255.783 467.656 255.697 395.69C255.612 323.723 227.008 254.73 176.161 203.847C176.161 203.847 176.161 203.847 176.161 203.847L6.68364 34.2114C3.30671 30.5142 1.48194 25.6563 1.58969 20.6466C1.69768 15.6259 3.73853 10.8412 7.28584 7.29057C10.8331 3.73998 15.6127 1.69776 20.6274 1.5897C25.631 1.48187 30.4836 3.30783 34.1772 6.68779L203.654 176.324C203.654 176.324 203.654 176.324 203.654 176.324C228.868 201.565 258.802 221.587 291.747 235.248C324.692 248.908 360.003 255.939 395.663 255.94C431.323 255.94 466.634 248.908 499.579 235.248C532.525 221.587 562.458 201.565 587.672 176.324Z" fill="white" fill-opacity="0.4"/>
</svg>
